<mxfile host="app.diagrams.net" modified="2024-02-27T09:29:02.864Z" agent="Mozilla/5.0 (Windows NT 10.0; Win64; x64) AppleWebKit/537.36 (KHTML, like Gecko) Chrome/121.0.0.0 Safari/537.36 Edg/121.0.0.0" etag="_r_LtfB3EyMkN7s_TRrh" version="23.1.5" type="github">
  <diagram name="Page-1" id="e7e014a7-5840-1c2e-5031-d8a46d1fe8dd">
    <mxGraphModel dx="480" dy="-573" grid="1" gridSize="10" guides="1" tooltips="1" connect="1" arrows="1" fold="1" page="1" pageScale="1" pageWidth="1169" pageHeight="826" background="none" math="0" shadow="0">
      <root>
        <mxCell id="0" />
        <mxCell id="1" parent="0" />
        <mxCell id="tyBdn8Una6jYjnqN0pja-41" value="" style="endArrow=classic;html=1;rounded=0;" edge="1" parent="1">
          <mxGeometry width="50" height="50" relative="1" as="geometry">
            <mxPoint x="80" y="1010" as="sourcePoint" />
            <mxPoint x="1110" y="1010" as="targetPoint" />
          </mxGeometry>
        </mxCell>
        <mxCell id="tyBdn8Una6jYjnqN0pja-42" value="J+15" style="text;html=1;align=center;verticalAlign=middle;whiteSpace=wrap;rounded=0;" vertex="1" parent="1">
          <mxGeometry x="880" y="1010" width="60" height="30" as="geometry" />
        </mxCell>
        <mxCell id="tyBdn8Una6jYjnqN0pja-43" value="J+13" style="text;html=1;align=center;verticalAlign=middle;whiteSpace=wrap;rounded=0;" vertex="1" parent="1">
          <mxGeometry x="610" y="1020" width="60" height="30" as="geometry" />
        </mxCell>
        <mxCell id="tyBdn8Una6jYjnqN0pja-44" value="J+10" style="text;html=1;align=center;verticalAlign=middle;whiteSpace=wrap;rounded=0;" vertex="1" parent="1">
          <mxGeometry x="350" y="1080" width="60" height="30" as="geometry" />
        </mxCell>
        <mxCell id="tyBdn8Una6jYjnqN0pja-45" value="Modification" style="text;html=1;align=center;verticalAlign=middle;whiteSpace=wrap;rounded=0;" vertex="1" parent="1">
          <mxGeometry x="162" y="970" width="60" height="30" as="geometry" />
        </mxCell>
        <mxCell id="tyBdn8Una6jYjnqN0pja-46" value="" style="endArrow=classic;html=1;rounded=0;" edge="1" parent="1">
          <mxGeometry width="50" height="50" relative="1" as="geometry">
            <mxPoint x="230" y="984.5" as="sourcePoint" />
            <mxPoint x="300" y="984.5" as="targetPoint" />
          </mxGeometry>
        </mxCell>
        <mxCell id="tyBdn8Una6jYjnqN0pja-48" value="" style="endArrow=none;html=1;rounded=0;endFill=0;startArrow=classic;startFill=1;" edge="1" parent="1">
          <mxGeometry width="50" height="50" relative="1" as="geometry">
            <mxPoint x="79" y="984.5" as="sourcePoint" />
            <mxPoint x="149" y="984.5" as="targetPoint" />
          </mxGeometry>
        </mxCell>
        <mxCell id="tyBdn8Una6jYjnqN0pja-49" value="Deployment in prod" style="text;html=1;align=center;verticalAlign=middle;whiteSpace=wrap;rounded=0;" vertex="1" parent="1">
          <mxGeometry x="760" y="960" width="60" height="30" as="geometry" />
        </mxCell>
        <mxCell id="tyBdn8Una6jYjnqN0pja-54" value="development + Deployment + debug in dev" style="text;html=1;align=center;verticalAlign=middle;whiteSpace=wrap;rounded=0;" vertex="1" parent="1">
          <mxGeometry x="362" y="970" width="200" height="30" as="geometry" />
        </mxCell>
        <mxCell id="tyBdn8Una6jYjnqN0pja-55" value="J+12" style="text;html=1;align=center;verticalAlign=middle;whiteSpace=wrap;rounded=0;" vertex="1" parent="1">
          <mxGeometry x="460" y="1020" width="60" height="30" as="geometry" />
        </mxCell>
        <mxCell id="tyBdn8Una6jYjnqN0pja-57" value="Deployment + debug in stage" style="text;html=1;align=center;verticalAlign=middle;whiteSpace=wrap;rounded=0;" vertex="1" parent="1">
          <mxGeometry x="550" y="1080" width="120" height="30" as="geometry" />
        </mxCell>
        <mxCell id="tyBdn8Una6jYjnqN0pja-58" value="J+7" style="text;html=1;align=center;verticalAlign=middle;whiteSpace=wrap;rounded=0;" vertex="1" parent="1">
          <mxGeometry x="240" y="1020" width="60" height="30" as="geometry" />
        </mxCell>
        <mxCell id="tyBdn8Una6jYjnqN0pja-62" value="" style="endArrow=none;html=1;rounded=0;endFill=0;startArrow=classic;startFill=1;" edge="1" parent="1">
          <mxGeometry width="50" height="50" relative="1" as="geometry">
            <mxPoint x="310" y="984.83" as="sourcePoint" />
            <mxPoint x="360" y="984.83" as="targetPoint" />
          </mxGeometry>
        </mxCell>
        <mxCell id="tyBdn8Una6jYjnqN0pja-63" value="" style="endArrow=classic;html=1;rounded=0;endFill=1;startArrow=none;startFill=0;endSize=6;" edge="1" parent="1">
          <mxGeometry width="50" height="50" relative="1" as="geometry">
            <mxPoint x="570" y="984.83" as="sourcePoint" />
            <mxPoint x="620" y="984.83" as="targetPoint" />
          </mxGeometry>
        </mxCell>
      </root>
    </mxGraphModel>
  </diagram>
</mxfile>
